<svg width="283" height="48" viewBox="0 0 283 48" fill="none" xmlns="http://www.w3.org/2000/svg">
<path d="M19.5 1.95884L23.3946 16.7112L23.4929 17.0836H23.878H36.7363L26.2505 26.4601L26.0222 26.6643L26.1004 26.9604L30.0531 41.9331L19.8333 32.7945L19.5 32.4964L19.1667 32.7945L8.94691 41.9331L12.8996 26.9604L12.9778 26.6643L12.7495 26.4601L2.26366 17.0836H15.122H15.5071L15.6054 16.7112L19.5 1.95884Z" stroke="white"/>
<path d="M80 1.91311L84.0077 16.7143L84.1077 17.0836H84.4903H97.6868L86.9368 26.4559L86.701 26.6615L86.7828 26.9635L90.8425 41.9569L80.3286 32.7903L80 32.5038L79.6714 32.7903L69.1575 41.9569L73.2172 26.9635L73.299 26.6615L73.0632 26.4559L62.3132 17.0836H75.5097H75.8923L75.9923 16.7143L80 1.91311Z" stroke="white"/>
<path d="M144.168 16.7051L144.263 17.0836H144.654H156.835L146.878 26.469L146.664 26.67L146.735 26.9543L150.474 41.881L140.843 32.8033L140.5 32.4801L140.157 32.8033L130.526 41.881L134.265 26.9543L134.336 26.67L134.122 26.469L124.165 17.0836H136.346H136.737L136.832 16.7051L140.5 2.058L144.168 16.7051Z" stroke="white"/>
<path d="M203 1.91311L207.008 16.7143L207.108 17.0836H207.49H220.687L209.937 26.4559L209.701 26.6615L209.783 26.9635L213.843 41.9569L203.329 32.7903L203 32.5038L202.671 32.7903L192.157 41.9569L196.217 26.9635L196.299 26.6615L196.063 26.4559L185.313 17.0836H198.51H198.892L198.992 16.7143L203 1.91311Z" stroke="white"/>
<path d="M262.5 1.86967L266.621 16.7173L266.722 17.0836H267.103H280.637L269.623 26.452L269.38 26.6588L269.465 26.9665L273.632 41.9794L262.824 32.7863L262.5 32.5108L262.176 32.7863L251.368 41.9794L255.535 26.9665L255.62 26.6588L255.377 26.452L244.363 17.0836H257.897H258.278L258.379 16.7173L262.5 1.86967Z" stroke="white"/>
</svg>
